# xmcd
#
# Track frame offsets:
#	150
#	11811
#	86459
#	148761
#	205350
#	237125
#	308873
#
# Disc length: 4755 seconds
#
# Revision: 1
# Processed by: cddbd v1.4PL0 Copyright (c) Steve Scherf et al.
# Submitted via: audiograbber 1.80
#
DISCID=5a129107
DTITLE=Sweet Micky - New Repertoire
DYEAR=1900
DGENRE=
TTITLE0=Message
TTITLE1=Familia
TTITLE2=Yo Kembe'w
TTITLE3=Langue
TTITLE4=Micky Towubadou
TTITLE5=Cowboy
TTITLE6=A Ou M'ap Panse
EXTD=
EXTT0=
EXTT1=
EXTT2=
EXTT3=
EXTT4=
EXTT5=
EXTT6=
PLAYORDER=
